<!DOCTYPE svg PUBLIC "-//W3C//DTD SVG 1.1//EN" "http://www.w3.org/Graphics/SVG/1.1/DTD/svg11.dtd">
<!-- Uploaded to: SVG Repo, www.svgrepo.com, Transformed by: SVG Repo Mixer Tools -->
<svg version="1.1" id="Layer_1" xmlns="http://www.w3.org/2000/svg" xmlns:xlink="http://www.w3.org/1999/xlink" viewBox="-49.5 -49.5 594.00 594.00" xml:space="preserve" width="800px" height="800px" fill="#000000">
<g id="SVGRepo_bgCarrier" stroke-width="0">
<rect x="-49.5" y="-49.5" width="594.00" height="594.00" rx="106.92" fill="#fb5b5b" strokewidth="0"/>
</g>
<g id="SVGRepo_tracerCarrier" stroke-linecap="round" stroke-linejoin="round"/>
<g id="SVGRepo_iconCarrier"> <g> <path style="fill:#d6d6d6;" d="M55.556,13.786v111.112c30.633,0,55.556-24.922,55.556-55.556S86.189,13.786,55.556,13.786z"/> <path style="fill:#ffffff;" d="M0,69.342c0,30.634,24.922,55.556,55.556,55.556V13.786C24.922,13.786,0,38.708,0,69.342z"/> <rect x="333.147" y="263.167" style="fill:#d6d6d6;" width="121.853" height="40"/> <rect x="333.147" y="65.12" style="fill:#d6d6d6;" width="161.853" height="40"/> <polygon style="fill:#ffffff;" points="333.147,105.12 333.147,65.12 171.294,65.12 171.294,481.214 211.294,481.214 211.294,303.167 333.147,303.167 333.147,263.167 211.294,263.167 211.294,105.12 "/> </g> </g>
</svg>